# xmcd
#
# Track frame offsets:
#	150
#	4424
#	17514
#	20900
#	35902
#	48804
#	52185
#	63779
#	75961
#	79414
#	91473
#	95068
#	110667
#	114741
#	132534
#	135794
#	149598
#	171955
#	187020
#	201870
#
# Disc length: 2921 seconds
#
# Revision: 0
# Processed by: cddbd v1.5.2PL0 Copyright (c) Steve Scherf et al.
# Submitted via: EZCDAudioConverter 2.1.7.1
#
DISCID=220b6714
DTITLE=Brian Wilson - That Lucky Old Sun
DYEAR=2008
DGENRE=
TTITLE0=Brian Wilson - That Lucky Old Sun
TTITLE1=Brian Wilson - Morning Beat
TTITLE2=Brian Wilson - Room With A View
TTITLE3=Brian Wilson - Good Kind Of Love
TTITLE4=Brian Wilson - Forever She'll Be My Surfer Girl
TTITLE5=Brian Wilson - Venice Beach
TTITLE6=Brian Wilson - Live Let Live/That Lucky Old Sun (Reprise)
TTITLE7=Brian Wilson - Mexican Girl
TTITLE8=Brian Wilson - Cinco De Mayo
TTITLE9=Brian Wilson - California Role/That Lucky Old Sun (Reprise)
TTITLE10=Brian Wilson - Between Pictures
TTITLE11=Brian Wilson - Oxygen To The Brain
TTITLE12=Brian Wilson - Can't Wait Too Long
TTITLE13=Brian Wilson - Midnight's Another Day
TTITLE14=Brian Wilson - That Lucky Old Sun (Reprise)
TTITLE15=Brian Wilson - Going Home
TTITLE16=Brian Wilson - Southern California
TTITLE17=Brian Wilson and Carole King - Good Kind Of Love
TTITLE18=Brian Wilson and Carole King - I'm Into Something Good
TTITLE19=Brian Wilson - Just Like Me And You
EXTD=
EXTT0=
EXTT1=
EXTT2=
EXTT3=
EXTT4=
EXTT5=
EXTT6=
EXTT7=
EXTT8=
EXTT9=
EXTT10=
EXTT11=
EXTT12=
EXTT13=
EXTT14=
EXTT15=
EXTT16=
EXTT17=
EXTT18=
EXTT19=
PLAYORDER=
